<?xml version="1.0" encoding="UTF-8" standalone="no"?>
<!-- Created with Inkscape (http://www.inkscape.org/) -->
<svg
   xmlns:svg="http://www.w3.org/2000/svg"
   xmlns="http://www.w3.org/2000/svg"
   version="1.0"
   width="675.15997"
   height="824.04999"
   id="svg2">
  <defs
     id="defs4" />
  <g
     transform="translate(-38.469645,-172.40878)"
     id="layer1">
    <path
       d="M 430.44697,791.34963 C 414.25177,770.07713 401.00107,750.90239 401.00107,748.73908 C 401.00107,746.57578 414.25177,727.40103 430.44697,706.12854 C 467.31177,657.70657 470.13897,656.72603 470.13897,692.36205 L 470.13897,717.27283 L 536.34917,717.2582 C 573.01657,717.2501 606.83177,716.05693 612.13437,714.58404 C 633.18057,708.73832 649.47087,679.47007 643.24477,658.68902 C 641.55067,653.0347 615.38567,605.78872 585.10027,553.69792 C 554.81487,501.60712 529.83397,458.00418 529.58707,456.80251 C 529.34017,455.60084 541.31057,447.4607 556.18807,438.71335 C 579.06507,425.26257 583.75957,423.37476 586.61927,426.47617 C 593.72187,434.1793 700.58797,622.20485 704.95037,634.67393 C 711.67137,653.88457 711.06687,688.02926 703.66267,707.41134 C 691.68227,738.77236 667.38007,764.21843 639.41727,774.68065 C 625.62867,779.83964 619.53737,780.20533 547.39507,780.20533 L 470.13897,780.20533 L 470.13897,805.11611 C 470.13897,840.75214 467.31177,839.7716 430.44697,791.34963 z M 130.27389,778.92468 C 109.35566,774.3743 94.70719,766.70587 79.168334,752.17108 C 62.951434,737.00207 52.148064,719.90305 46.612984,700.6441 C 41.817334,683.95794 41.033744,652.80659 45.068624,639.24805 C 46.465874,634.55278 63.785534,602.69321 83.556744,568.44898 C 103.32795,534.20474 119.96508,505.35475 120.52815,504.33786 C 121.09122,503.32098 112.13792,497.05899 100.63194,490.42234 C 79.345524,478.14434 75.816114,472.19614 88.244314,469.54516 C 94.46785,468.21765 179.1991,457.67627 183.646,457.67627 C 185.18999,457.67627 190.0202,466.23116 194.3798,476.68713 C 198.7394,487.14311 207.5929,508.30293 214.05424,523.70899 C 223.36036,545.89796 225.17006,552.53553 222.76106,555.64387 C 220.14323,559.02164 216.87386,557.9085 199.27018,547.64565 C 188.02279,541.0885 178.49982,536.15766 178.10804,536.68826 C 177.71625,537.21886 161.84399,564.60884 142.83636,597.5549 C 112.29163,650.49825 108.27702,658.84822 108.27702,669.43467 C 108.27702,684.68513 117.82969,701.52201 131.19796,709.83361 L 141.05436,715.96174 L 258.39725,716.71929 L 375.74017,717.47684 L 375.74017,750.15218 L 375.74017,782.82752 L 261.01944,782.61906 C 176.04564,782.46464 142.14352,781.5067 130.27389,778.92468 z M 196.1203,433.80111 C 181.69827,425.13836 170.04633,416.44247 170.2271,414.47691 C 170.9259,406.87855 289.23527,214.79478 298.88227,205.59612 C 332.79647,173.25777 377.49577,164.9 423.58637,182.27925 C 451.60927,192.8458 461.88477,205.43908 501.53697,277.81278 C 520.96917,313.28077 537.67837,342.30003 538.66837,342.30003 C 539.65837,342.30003 548.79777,337.58009 558.97807,331.81128 C 579.43697,320.21796 581.67497,319.61068 583.77477,325.08269 C 585.12417,328.59913 548.57927,414.27008 543.55747,419.36265 C 540.55527,422.40716 443.23807,408.07195 440.67947,404.20832 C 437.25527,399.03769 438.36837,397.97965 459.36697,386.44493 L 480.06117,375.07737 L 445.70867,312.97565 C 415.41737,258.2157 410.15487,250.19876 401.19467,245.16286 C 387.89337,237.6871 362.48497,238.66819 350.62167,247.11563 C 345.43647,250.80782 322.76887,286.14021 283.86737,351.16674 C 251.47072,405.32004 224.37437,449.61024 223.65327,449.58942 C 222.93217,449.5686 210.54233,442.46386 196.1203,433.80111 z "
       style="fill:#000000"
       id="path2221" />
    <text
       x="293.97702"
       y="632.72894"
       style="font-size:294.69515991px;font-style:normal;font-variant:normal;font-weight:bold;font-stretch:normal;text-align:start;line-height:100%;writing-mode:lr-tb;text-anchor:start;fill:#000000;fill-opacity:1;stroke:none;stroke-width:1px;stroke-linecap:butt;stroke-linejoin:miter;stroke-opacity:1;font-family:FreeSans"
       id="text2299"
       xml:space="preserve"><tspan
         x="293.97702"
         y="632.72894"
         id="tspan2350">7</tspan></text>
    <text
       x="68.449799"
       y="992.45398"
       style="font-size:167.34254456px;font-style:normal;font-variant:normal;font-weight:bold;font-stretch:normal;text-align:start;line-height:100%;writing-mode:lr-tb;text-anchor:start;fill:#000000;fill-opacity:1;stroke:none;stroke-width:1px;stroke-linecap:butt;stroke-linejoin:miter;stroke-opacity:1;font-family:FreeSans"
       id="text2306"
       xml:space="preserve"><tspan
         x="68.449799"
         y="992.45398"
         id="tspan2352">OTHER</tspan></text>
  </g>
</svg>
